<svg width="55" height="55" viewBox="0 0 55 55" fill="none" xmlns="http://www.w3.org/2000/svg">
<g clip-path="url(#clip0_81_2844)">
<rect y="1" width="54" height="54" rx="27" stroke="#F3CE00" stroke-width="2"/>
<path d="M23 49.9667V48.9333H22H21V47.9V46.8667H20H19V41.7V36.5333H18H17V33.4333V30.3333H16H15V29.3V28.2667H13H11V27.2333V26.2H12H13V25.1667V24.1333H12H11V23.1V22.0667H13H15V23.1V24.1333H18H21V23.1V22.0667H22H23V21.0333V20H27H31V21.0333V22.0667H32H33V23.1V24.1333H36H39V23.1V22.0667H41H43V23.1V24.1333H42H41V25.1667V26.2H42H43V27.2333V28.2667H41H39V29.3V30.3333H38H37V33.4333V36.5333H36H35V41.7V46.8667H34H33V47.9V48.9333H32H31V49.9667V51H27H23V49.9667ZM31 47.9V46.8667H32H33V45.8333V44.8H32H31V45.8333V46.8667H27H23V45.8333V44.8H22H21V45.8333V46.8667H22H23V47.9V48.9333H27H31V47.9ZM25 41.7V40.6667H24H23V41.7V42.7333H24H25V41.7ZM31 41.7V40.6667H30H29V41.7V42.7333H30H31V41.7ZM23 30.3333V28.2667H21H19V29.3V30.3333H20H21V31.3667V32.4H22H23V30.3333ZM33 31.3667V30.3333H34H35V29.3V28.2667H33H31V30.3333V32.4H32H33V31.3667Z" fill="#F3CE00"/>
<path d="M21.5862 10.375H11.4482V13.75H21.5862V10.375Z" fill="#54E0E0"/>
<path d="M43.5517 10.375H33.4138V13.75H43.5517V10.375Z" fill="#54E0E0"/>
<path d="M33.4138 8.6875H21.5862V12.0625H33.4138V8.6875Z" fill="#54E0E0"/>
<path d="M11.4482 12.0625H8.06885V15.4375H11.4482V12.0625Z" fill="#54E0E0"/>
<path d="M9.7587 15.4375H6.37939V22.1875H9.7587V15.4375Z" fill="#54E0E0"/>
<path d="M11.4482 20.5V30.625H4.68945V20.5H11.4482ZM6.37891 27.25H9.75879V23.875H6.37891V27.25Z" fill="#54E0E0"/>
<path d="M46.9311 12.0625H43.5518V15.4375H46.9311V12.0625Z" fill="#54E0E0"/>
<path d="M48.6208 15.4375H45.2415V22.1875H48.6208V15.4375Z" fill="#54E0E0"/>
<path d="M50.3105 20.5V30.625H43.5518V20.5H50.3105ZM45.2412 27.25H48.6211V23.875H45.2412V27.25Z" fill="#54E0E0"/>
</g>
<rect x="1" y="1" width="53" height="53" rx="26.5" stroke="#F3CE00" stroke-width="2"/>
<defs>
<clipPath id="clip0_81_2844">
<rect width="55" height="55" rx="27.5" fill="white"/>
</clipPath>
</defs>
</svg>
