<svg width="46" height="44" viewBox="0 0 46 44" fill="none" xmlns="http://www.w3.org/2000/svg">
<g opacity="0.5" clip-path="url(#clip0_351_28)">
<path d="M10.8734 8.42936L34.5354 7.57642L36.2255 20.3705L10.0283 21.2235L10.8734 8.42936Z" fill="white"/>
<path d="M18.4789 19.9442C21.2792 19.9442 23.5493 17.6529 23.5493 14.8265C23.5493 12.0001 21.2792 9.70886 18.4789 9.70886C15.6786 9.70886 13.4084 12.0001 13.4084 14.8265C13.4084 17.6529 15.6786 19.9442 18.4789 19.9442Z" fill="#222222"/>
<path d="M18.4788 18.6648C20.5791 18.6648 22.2817 16.9463 22.2817 14.8265C22.2817 12.7067 20.5791 10.9883 18.4788 10.9883C16.3786 10.9883 14.676 12.7067 14.676 14.8265C14.676 16.9463 16.3786 18.6648 18.4788 18.6648Z" fill="white"/>
<path d="M29.4648 17.3854C31.0983 17.3854 32.4226 16.0488 32.4226 14.4001C32.4226 12.7514 31.0983 11.4148 29.4648 11.4148C27.8313 11.4148 26.5071 12.7514 26.5071 14.4001C26.5071 16.0488 27.8313 17.3854 29.4648 17.3854Z" fill="#222222"/>
<path d="M29.4648 16.1059C30.3982 16.1059 31.1549 15.3421 31.1549 14.4C31.1549 13.4578 30.3982 12.6941 29.4648 12.6941C28.5314 12.6941 27.7747 13.4578 27.7747 14.4C27.7747 15.3421 28.5314 16.1059 29.4648 16.1059Z" fill="white"/>
<path d="M13.4084 6.72355L22.7042 -0.0999756" stroke="white" stroke-width="0.88"/>
<path d="M9.756 39V31.272H13.308C14.172 31.272 14.8 31.496 15.192 31.944C15.592 32.384 15.792 32.984 15.792 33.744C15.792 34.288 15.656 34.752 15.384 35.136C15.112 35.52 14.72 35.788 14.208 35.94C14.352 36.044 14.464 36.156 14.544 36.276C14.624 36.396 14.704 36.556 14.784 36.756L15.756 39H14.412L13.464 36.84C13.376 36.632 13.268 36.484 13.14 36.396C13.02 36.308 12.812 36.264 12.516 36.264H11.064V39H9.756ZM11.064 35.208H12.96C13.432 35.208 13.804 35.092 14.076 34.86C14.348 34.628 14.484 34.256 14.484 33.744C14.484 32.776 14.016 32.292 13.08 32.292H11.064V35.208ZM17.7172 39.12C17.3572 39.12 17.0212 39.056 16.7092 38.928C16.4052 38.8 16.1612 38.608 15.9772 38.352C15.7932 38.088 15.7012 37.764 15.7012 37.38C15.7012 36.836 15.8852 36.4 16.2532 36.072C16.6292 35.736 17.2052 35.568 17.9812 35.568H19.8052V35.316C19.8052 35.044 19.7612 34.828 19.6732 34.668C19.5932 34.508 19.4412 34.392 19.2172 34.32C19.0012 34.248 18.6812 34.212 18.2572 34.212C17.5852 34.212 16.9572 34.312 16.3732 34.512V33.54C16.6292 33.436 16.9412 33.352 17.3092 33.288C17.6772 33.224 18.0732 33.192 18.4972 33.192C19.3292 33.192 19.9612 33.36 20.3932 33.696C20.8332 34.032 21.0532 34.58 21.0532 35.34V39H19.9372L19.8532 38.424C19.6212 38.648 19.3332 38.82 18.9892 38.94C18.6532 39.06 18.2292 39.12 17.7172 39.12ZM18.0652 38.184C18.4572 38.184 18.7972 38.12 19.0852 37.992C19.3812 37.856 19.6212 37.676 19.8052 37.452V36.456H18.0052C17.6212 36.456 17.3412 36.532 17.1652 36.684C16.9972 36.828 16.9132 37.052 16.9132 37.356C16.9132 37.652 17.0132 37.864 17.2132 37.992C17.4132 38.12 17.6972 38.184 18.0652 38.184ZM24.2557 39.12C23.7437 39.12 23.2917 39.032 22.8997 38.856C22.5077 38.68 22.2037 38.388 21.9877 37.98C21.7717 37.572 21.6637 37.024 21.6637 36.336C21.6637 35.656 21.7797 35.084 22.0117 34.62C22.2437 34.148 22.5637 33.792 22.9717 33.552C23.3877 33.312 23.8557 33.192 24.3757 33.192C24.7197 33.192 25.0237 33.232 25.2877 33.312C25.5597 33.392 25.8197 33.516 26.0677 33.684V30.912H27.3757V39H26.2597L26.1757 38.436C25.9197 38.668 25.6397 38.84 25.3357 38.952C25.0317 39.064 24.6717 39.12 24.2557 39.12ZM24.6037 38.136C25.1877 38.136 25.6757 37.936 26.0677 37.536V34.692C25.6917 34.356 25.2197 34.188 24.6517 34.188C24.0997 34.188 23.6837 34.372 23.4037 34.74C23.1237 35.108 22.9837 35.644 22.9837 36.348C22.9837 37.028 23.1117 37.496 23.3677 37.752C23.6317 38.008 24.0437 38.136 24.6037 38.136ZM28.768 32.124V31.044H30.196V32.124H28.768ZM28.876 39V34.308H28.012L28.132 33.312H30.184V39H28.876ZM33.8339 39.12C32.8099 39.12 32.0579 38.864 31.5779 38.352C31.1059 37.84 30.8699 37.108 30.8699 36.156C30.8699 35.204 31.1099 34.472 31.5899 33.96C32.0699 33.448 32.8179 33.192 33.8339 33.192C34.8579 33.192 35.6099 33.448 36.0899 33.96C36.5699 34.472 36.8099 35.204 36.8099 36.156C36.8099 37.108 36.5699 37.84 36.0899 38.352C35.6179 38.864 34.8659 39.12 33.8339 39.12ZM33.8339 38.016C34.4339 38.016 34.8579 37.872 35.1059 37.584C35.3619 37.288 35.4899 36.812 35.4899 36.156C35.4899 35.5 35.3619 35.028 35.1059 34.74C34.8579 34.452 34.4339 34.308 33.8339 34.308C33.2419 34.308 32.8179 34.452 32.5619 34.74C32.3139 35.028 32.1899 35.5 32.1899 36.156C32.1899 36.812 32.3139 37.288 32.5619 37.584C32.8179 37.872 33.2419 38.016 33.8339 38.016Z" fill="white"/>
</g>
<defs>
<clipPath id="clip0_351_28">
<rect width="46" height="44" fill="white"/>
</clipPath>
</defs>
</svg>
