<svg width="49" height="44" viewBox="0 0 49 44" fill="none" xmlns="http://www.w3.org/2000/svg">
<g opacity="0.5">
<path d="M36.75 12.1533H34.6113V23H27.4307V14.5977H21.0137V23H13.834V12.1533L12 11.6943L24.2227 1L36.75 12.1533Z" fill="white"/>
<path d="M9.756 39V31.272H11.064V34.632H14.784V31.272H16.092V39H14.784V35.64H11.064V39H9.756ZM19.7316 39.12C18.7076 39.12 17.9556 38.864 17.4756 38.352C17.0036 37.84 16.7676 37.108 16.7676 36.156C16.7676 35.204 17.0076 34.472 17.4876 33.96C17.9676 33.448 18.7156 33.192 19.7316 33.192C20.7556 33.192 21.5076 33.448 21.9876 33.96C22.4676 34.472 22.7076 35.204 22.7076 36.156C22.7076 37.108 22.4676 37.84 21.9876 38.352C21.5156 38.864 20.7636 39.12 19.7316 39.12ZM19.7316 38.016C20.3316 38.016 20.7556 37.872 21.0036 37.584C21.2596 37.288 21.3876 36.812 21.3876 36.156C21.3876 35.5 21.2596 35.028 21.0036 34.74C20.7556 34.452 20.3316 34.308 19.7316 34.308C19.1396 34.308 18.7156 34.452 18.4596 34.74C18.2116 35.028 18.0876 35.5 18.0876 36.156C18.0876 36.812 18.2116 37.288 18.4596 37.584C18.7156 37.872 19.1396 38.016 19.7316 38.016ZM23.3802 39V33.312H24.5802L24.6402 33.912C24.9202 33.688 25.2282 33.512 25.5642 33.384C25.9002 33.256 26.2602 33.192 26.6442 33.192C27.0522 33.192 27.3682 33.26 27.5922 33.396C27.8242 33.524 28.0002 33.704 28.1202 33.936C28.3842 33.72 28.6882 33.544 29.0322 33.408C29.3762 33.264 29.7882 33.192 30.2682 33.192C30.9242 33.192 31.4082 33.36 31.7202 33.696C32.0322 34.032 32.1882 34.548 32.1882 35.244V39H30.9042V35.376C30.9042 34.936 30.8122 34.628 30.6282 34.452C30.4442 34.276 30.1442 34.188 29.7282 34.188C29.4562 34.188 29.1962 34.236 28.9482 34.332C28.7082 34.428 28.5002 34.572 28.3242 34.764C28.3482 34.852 28.3642 34.944 28.3722 35.04C28.3802 35.136 28.3842 35.24 28.3842 35.352V39H27.1722V35.388C27.1722 34.972 27.1002 34.668 26.9562 34.476C26.8122 34.284 26.5402 34.188 26.1402 34.188C25.8602 34.188 25.5922 34.256 25.3362 34.392C25.0882 34.52 24.8642 34.676 24.6642 34.86V39H23.3802ZM35.8204 39.12C34.8284 39.12 34.0604 38.876 33.5164 38.388C32.9724 37.9 32.7004 37.152 32.7004 36.144C32.7004 35.232 32.9324 34.512 33.3964 33.984C33.8604 33.456 34.5644 33.192 35.5084 33.192C36.3724 33.192 37.0204 33.42 37.4524 33.876C37.8924 34.324 38.1124 34.904 38.1124 35.616V36.672H33.9484C34.0124 37.224 34.2124 37.604 34.5484 37.812C34.8844 38.02 35.3964 38.124 36.0844 38.124C36.3724 38.124 36.6684 38.096 36.9724 38.04C37.2764 37.984 37.5404 37.912 37.7644 37.824V38.784C37.5084 38.896 37.2124 38.98 36.8764 39.036C36.5484 39.092 36.1964 39.12 35.8204 39.12ZM33.9484 35.82H36.9604V35.424C36.9604 35.032 36.8524 34.728 36.6364 34.512C36.4204 34.288 36.0564 34.176 35.5444 34.176C34.9364 34.176 34.5164 34.308 34.2844 34.572C34.0604 34.836 33.9484 35.252 33.9484 35.82Z" fill="white"/>
</g>
</svg>
