<svg width="49" height="45" viewBox="0 0 49 45" fill="none" xmlns="http://www.w3.org/2000/svg">
<g opacity="0.5">
<path d="M35.0303 25.4429L13.0059 23.9028L13.6284 1.81335L18.1535 2.12978C16.9672 2.83364 16.3053 3.99351 16.6082 5.0496C16.8687 5.95723 17.7743 6.55181 18.8994 6.68118C18.7355 6.96089 18.6779 7.2603 18.7588 7.54261C18.9406 8.17607 19.7583 8.51298 20.6869 8.38913L21.3206 10.1907L17.6713 9.93547L17.5943 11.0363L21.719 11.3247L22.1519 12.5542L17.5109 12.2297L17.4339 13.3305L22.5503 13.6883L22.9832 14.9178L17.3505 14.5239L17.2735 15.6247L28.7445 16.4268L28.8215 15.326L23.0709 14.9239L22.7978 13.7056L30.2814 14.2289L30.3584 13.1281L22.5455 12.5817L22.2724 11.3634L32.2772 12.063L32.3542 10.9622L22.0201 10.2396L21.55 8.14209C22.4035 7.75523 22.9189 7.03602 22.7377 6.40235C22.6568 6.12009 22.4491 5.89673 22.162 5.74633C23.0476 5.04037 23.5007 4.05517 23.2404 3.14726C23.1674 2.89265 23.0435 2.66244 22.8783 2.46017L35.6528 3.35345L35.0303 25.4429ZM17.19 16.8181L17.113 17.9189L26.2899 18.5606L26.3668 17.4598L17.19 16.8181Z" fill="white"/>
<path d="M5.756 40V32.272H9.5C10.268 32.272 10.836 32.452 11.204 32.812C11.572 33.172 11.756 33.68 11.756 34.336C11.756 34.752 11.672 35.104 11.504 35.392C11.336 35.672 11.112 35.884 10.832 36.028C11.208 36.132 11.504 36.32 11.72 36.592C11.944 36.856 12.056 37.248 12.056 37.768C12.056 38.52 11.852 39.08 11.444 39.448C11.044 39.816 10.452 40 9.668 40H5.756ZM7.064 35.572H9.32C9.76 35.572 10.072 35.472 10.256 35.272C10.448 35.064 10.544 34.788 10.544 34.444C10.544 34.044 10.448 33.748 10.256 33.556C10.064 33.356 9.704 33.256 9.176 33.256H7.064V35.572ZM7.064 39.04H9.392C9.856 39.04 10.196 38.944 10.412 38.752C10.628 38.552 10.736 38.208 10.736 37.72C10.736 37.32 10.628 37.024 10.412 36.832C10.204 36.632 9.82 36.532 9.26 36.532H7.064V39.04ZM14.7783 40.12C14.0983 40.12 13.5743 39.932 13.2063 39.556C12.8463 39.18 12.6663 38.628 12.6663 37.9V34.312H13.9743V37.9C13.9743 38.324 14.0783 38.636 14.2863 38.836C14.4943 39.036 14.8143 39.136 15.2463 39.136C15.5663 39.136 15.8623 39.076 16.1343 38.956C16.4063 38.836 16.6423 38.676 16.8423 38.476V34.312H18.1383V40H16.9503L16.8903 39.412C16.6343 39.612 16.3303 39.78 15.9783 39.916C15.6263 40.052 15.2263 40.12 14.7783 40.12ZM20.4798 40.12C20.0158 40.12 19.6638 40.008 19.4238 39.784C19.1838 39.552 19.0638 39.172 19.0638 38.644V31.912H20.3718V38.524C20.3718 38.748 20.4118 38.9 20.4918 38.98C20.5718 39.06 20.6918 39.1 20.8518 39.1C21.0438 39.1 21.2278 39.076 21.4038 39.028V39.976C21.2518 40.032 21.1038 40.068 20.9598 40.084C20.8238 40.108 20.6638 40.12 20.4798 40.12ZM22.9384 40.12C22.4744 40.12 22.1224 40.008 21.8824 39.784C21.6424 39.552 21.5224 39.172 21.5224 38.644V31.912H22.8304V38.524C22.8304 38.748 22.8704 38.9 22.9504 38.98C23.0304 39.06 23.1504 39.1 23.3104 39.1C23.5024 39.1 23.6864 39.076 23.8624 39.028V39.976C23.7104 40.032 23.5624 40.068 23.4184 40.084C23.2824 40.108 23.1224 40.12 22.9384 40.12ZM27.1657 40.12C26.1737 40.12 25.4057 39.876 24.8617 39.388C24.3177 38.9 24.0457 38.152 24.0457 37.144C24.0457 36.232 24.2777 35.512 24.7417 34.984C25.2057 34.456 25.9097 34.192 26.8537 34.192C27.7177 34.192 28.3657 34.42 28.7977 34.876C29.2377 35.324 29.4577 35.904 29.4577 36.616V37.672H25.2937C25.3577 38.224 25.5577 38.604 25.8937 38.812C26.2297 39.02 26.7417 39.124 27.4297 39.124C27.7177 39.124 28.0137 39.096 28.3177 39.04C28.6217 38.984 28.8857 38.912 29.1097 38.824V39.784C28.8537 39.896 28.5577 39.98 28.2217 40.036C27.8937 40.092 27.5417 40.12 27.1657 40.12ZM25.2937 36.82H28.3057V36.424C28.3057 36.032 28.1977 35.728 27.9817 35.512C27.7657 35.288 27.4017 35.176 26.8897 35.176C26.2817 35.176 25.8617 35.308 25.6297 35.572C25.4057 35.836 25.2937 36.252 25.2937 36.82ZM32.303 40.12C31.695 40.12 31.239 39.96 30.935 39.64C30.639 39.312 30.491 38.868 30.491 38.308V35.332H29.651V34.312H30.491V33.004L31.787 32.608V34.312H33.299L33.215 35.332H31.787V38.236C31.787 38.564 31.863 38.796 32.015 38.932C32.167 39.06 32.415 39.124 32.759 39.124C32.975 39.124 33.203 39.084 33.443 39.004V39.928C33.131 40.056 32.751 40.12 32.303 40.12ZM34.3235 33.124V32.044H35.7515V33.124H34.3235ZM34.4315 40V35.308H33.5675L33.6875 34.312H35.7395V40H34.4315ZM36.6654 40V34.312H37.8654L37.9254 34.912C38.1814 34.712 38.4854 34.544 38.8374 34.408C39.1974 34.264 39.5934 34.192 40.0254 34.192C40.7614 34.192 41.2974 34.364 41.6334 34.708C41.9694 35.052 42.1374 35.588 42.1374 36.316V40H40.8414V36.376C40.8414 35.936 40.7494 35.628 40.5654 35.452C40.3894 35.276 40.0534 35.188 39.5574 35.188C39.2614 35.188 38.9694 35.248 38.6814 35.368C38.4014 35.488 38.1654 35.644 37.9734 35.836V40H36.6654Z" fill="white"/>
</g>
</svg>
