<svg width="41" height="44" viewBox="0 0 41 44" fill="none" xmlns="http://www.w3.org/2000/svg">
<g opacity="0.5">
<path d="M17.8809 4.15625C22.2814 4.15647 25.8485 7.72352 25.8486 12.124C25.8485 14.2169 25.0404 16.1201 23.7207 17.542C23.9402 17.573 24.1546 17.6625 24.3369 17.8154L28.5625 21.3613C29.0811 21.7965 29.149 22.5702 28.7139 23.0889C28.2787 23.6075 27.505 23.6745 26.9863 23.2393L22.7607 19.6934C22.4677 19.4475 22.318 19.0941 22.3223 18.7393C21.0532 19.5931 19.5254 20.0927 17.8809 20.0928C13.4804 20.0926 9.91235 16.5245 9.91211 12.124C9.91228 7.72349 13.4803 4.15642 17.8809 4.15625ZM17.8809 6.60742C14.8344 6.60759 12.3645 9.0776 12.3643 12.124C12.3645 15.1704 14.8345 17.6405 17.8809 17.6406C20.9272 17.6404 23.3972 15.1704 23.3975 12.124C23.3973 9.07762 20.9273 6.60763 17.8809 6.60742Z" fill="white"/>
<path d="M6.096 39.12C5.096 39.12 4.292 38.992 3.684 38.736V37.584C4.028 37.712 4.396 37.816 4.788 37.896C5.188 37.976 5.584 38.016 5.976 38.016C6.592 38.016 7.052 37.944 7.356 37.8C7.668 37.656 7.824 37.368 7.824 36.936C7.824 36.672 7.76 36.46 7.632 36.3C7.504 36.14 7.292 36.004 6.996 35.892C6.7 35.772 6.292 35.648 5.772 35.52C4.94 35.304 4.356 35.032 4.02 34.704C3.684 34.368 3.516 33.908 3.516 33.324C3.516 32.644 3.764 32.112 4.26 31.728C4.756 31.344 5.496 31.152 6.48 31.152C6.928 31.152 7.348 31.184 7.74 31.248C8.14 31.312 8.452 31.384 8.676 31.464V32.616C8.068 32.384 7.396 32.268 6.66 32.268C6.084 32.268 5.636 32.344 5.316 32.496C4.996 32.648 4.836 32.924 4.836 33.324C4.836 33.556 4.892 33.744 5.004 33.888C5.116 34.032 5.308 34.156 5.58 34.26C5.86 34.364 6.244 34.48 6.732 34.608C7.364 34.768 7.852 34.96 8.196 35.184C8.548 35.4 8.792 35.656 8.928 35.952C9.072 36.24 9.144 36.568 9.144 36.936C9.144 37.616 8.892 38.152 8.388 38.544C7.884 38.928 7.12 39.12 6.096 39.12ZM12.6923 39.12C11.7003 39.12 10.9323 38.876 10.3883 38.388C9.84425 37.9 9.57225 37.152 9.57225 36.144C9.57225 35.232 9.80425 34.512 10.2683 33.984C10.7323 33.456 11.4363 33.192 12.3803 33.192C13.2443 33.192 13.8923 33.42 14.3243 33.876C14.7643 34.324 14.9843 34.904 14.9843 35.616V36.672H10.8203C10.8843 37.224 11.0843 37.604 11.4203 37.812C11.7563 38.02 12.2683 38.124 12.9563 38.124C13.2443 38.124 13.5403 38.096 13.8443 38.04C14.1483 37.984 14.4123 37.912 14.6363 37.824V38.784C14.3803 38.896 14.0843 38.98 13.7483 39.036C13.4203 39.092 13.0683 39.12 12.6923 39.12ZM10.8203 35.82H13.8323V35.424C13.8323 35.032 13.7243 34.728 13.5083 34.512C13.2923 34.288 12.9283 34.176 12.4163 34.176C11.8083 34.176 11.3883 34.308 11.1563 34.572C10.9323 34.836 10.8203 35.252 10.8203 35.82ZM17.4336 39.12C17.0736 39.12 16.7376 39.056 16.4256 38.928C16.1216 38.8 15.8776 38.608 15.6936 38.352C15.5096 38.088 15.4176 37.764 15.4176 37.38C15.4176 36.836 15.6016 36.4 15.9696 36.072C16.3456 35.736 16.9216 35.568 17.6976 35.568H19.5216V35.316C19.5216 35.044 19.4776 34.828 19.3896 34.668C19.3096 34.508 19.1576 34.392 18.9336 34.32C18.7176 34.248 18.3976 34.212 17.9736 34.212C17.3016 34.212 16.6736 34.312 16.0896 34.512V33.54C16.3456 33.436 16.6576 33.352 17.0256 33.288C17.3936 33.224 17.7896 33.192 18.2136 33.192C19.0456 33.192 19.6776 33.36 20.1096 33.696C20.5496 34.032 20.7696 34.58 20.7696 35.34V39H19.6536L19.5696 38.424C19.3376 38.648 19.0496 38.82 18.7056 38.94C18.3696 39.06 17.9456 39.12 17.4336 39.12ZM17.7816 38.184C18.1736 38.184 18.5136 38.12 18.8016 37.992C19.0976 37.856 19.3376 37.676 19.5216 37.452V36.456H17.7216C17.3376 36.456 17.0576 36.532 16.8816 36.684C16.7136 36.828 16.6296 37.052 16.6296 37.356C16.6296 37.652 16.7296 37.864 16.9296 37.992C17.1296 38.12 17.4136 38.184 17.7816 38.184ZM21.6201 39V33.312H22.8201L22.8921 33.972C23.1641 33.796 23.4881 33.636 23.8641 33.492C24.2401 33.348 24.6121 33.248 24.9801 33.192V34.188C24.7561 34.228 24.5121 34.288 24.2481 34.368C23.9921 34.44 23.7481 34.524 23.5161 34.62C23.2841 34.708 23.0881 34.8 22.9281 34.896V39H21.6201ZM27.8942 39.12C26.8942 39.12 26.1382 38.868 25.6262 38.364C25.1142 37.852 24.8582 37.116 24.8582 36.156C24.8582 35.156 25.1382 34.412 25.6982 33.924C26.2662 33.436 27.0222 33.192 27.9662 33.192C28.3582 33.192 28.6862 33.22 28.9502 33.276C29.2222 33.332 29.4822 33.42 29.7302 33.54V34.512C29.3142 34.304 28.8102 34.2 28.2182 34.2C27.5622 34.2 27.0582 34.348 26.7062 34.644C26.3542 34.932 26.1782 35.436 26.1782 36.156C26.1782 36.836 26.3342 37.336 26.6462 37.656C26.9582 37.968 27.4742 38.124 28.1942 38.124C28.7622 38.124 29.2782 38.016 29.7422 37.8V38.796C29.4782 38.9 29.1942 38.98 28.8902 39.036C28.5942 39.092 28.2622 39.12 27.8942 39.12ZM30.1818 39V30.912H31.4898V33.864C31.7378 33.664 32.0338 33.504 32.3778 33.384C32.7218 33.256 33.1098 33.192 33.5418 33.192C34.2618 33.192 34.7938 33.364 35.1378 33.708C35.4818 34.052 35.6538 34.588 35.6538 35.316V39H34.3578V35.376C34.3578 34.936 34.2618 34.628 34.0698 34.452C33.8858 34.276 33.5618 34.188 33.0978 34.188C32.8098 34.188 32.5178 34.252 32.2218 34.38C31.9258 34.5 31.6818 34.66 31.4898 34.86V39H30.1818Z" fill="white"/>
</g>
</svg>
