<svg width="70" height="45" viewBox="0 0 70 45" fill="none" xmlns="http://www.w3.org/2000/svg">
<g opacity="0.5">
<path d="M48.8585 4.54801L50.4935 22.9325L19.346 25.6144L17.7119 7.22888L48.8585 4.54801ZM21.9642 13.049L27.9128 12.5356C25.6414 12.8502 23.9946 14.8782 24.1982 17.1701C24.4088 19.5383 26.5156 21.2919 28.9041 21.0864C31.2927 20.8808 33.0584 18.7944 32.8479 16.4262C32.6441 14.135 30.6654 12.4188 28.374 12.4956L39.2311 11.5591C36.9894 11.8996 35.3716 13.9121 35.5735 16.1847C35.7841 18.5529 37.891 20.3064 40.2795 20.101C42.668 19.8954 44.4337 17.809 44.2233 15.4408C44.0212 13.1692 42.0746 11.4641 39.8082 11.51L45.7023 11.0023L45.3755 7.31855L21.6374 9.36521L21.9642 13.049Z" fill="white"/>
<path d="M12.756 40V32.272H14.1L16.548 37.276L18.984 32.272H20.328V40H19.032V34.396L16.944 38.668H16.152L14.052 34.396V40H12.756ZM22.1002 42.112C21.6682 42.112 21.3002 42.056 20.9962 41.944V40.972C21.1322 41.02 21.2562 41.052 21.3682 41.068C21.4882 41.084 21.6082 41.092 21.7282 41.092C21.9762 41.092 22.1762 41.052 22.3282 40.972C22.4802 40.892 22.6122 40.764 22.7242 40.588C22.8442 40.42 22.9722 40.2 23.1082 39.928L20.5762 34.312H21.9322L23.7562 38.536L25.6042 34.312H26.9482L24.6322 39.676C24.4322 40.156 24.2162 40.576 23.9842 40.936C23.7602 41.304 23.4962 41.592 23.1922 41.8C22.8962 42.008 22.5322 42.112 22.1002 42.112ZM29.5537 40V32.272H30.8977L33.3457 37.276L35.7817 32.272H37.1257V40H35.8297V34.396L33.7417 38.668H32.9497L30.8497 34.396V40H29.5537ZM40.0877 40.12C39.4077 40.12 38.8837 39.932 38.5157 39.556C38.1557 39.18 37.9757 38.628 37.9757 37.9V34.312H39.2837V37.9C39.2837 38.324 39.3877 38.636 39.5957 38.836C39.8037 39.036 40.1237 39.136 40.5557 39.136C40.8757 39.136 41.1717 39.076 41.4437 38.956C41.7157 38.836 41.9517 38.676 42.1517 38.476V34.312H43.4477V40H42.2597L42.1997 39.412C41.9437 39.612 41.6397 39.78 41.2877 39.916C40.9357 40.052 40.5357 40.12 40.0877 40.12ZM46.2692 40.12C45.8772 40.12 45.5012 40.092 45.1412 40.036C44.7892 39.98 44.4972 39.912 44.2652 39.832V38.728C44.5372 38.832 44.8372 38.912 45.1652 38.968C45.4932 39.024 45.8052 39.052 46.1012 39.052C46.5492 39.052 46.8692 39.012 47.0612 38.932C47.2532 38.852 47.3492 38.696 47.3492 38.464C47.3492 38.296 47.2892 38.164 47.1692 38.068C47.0572 37.972 46.8852 37.884 46.6532 37.804C46.4292 37.724 46.1412 37.628 45.7892 37.516C45.4532 37.404 45.1612 37.284 44.9132 37.156C44.6652 37.02 44.4732 36.848 44.3372 36.64C44.2012 36.432 44.1332 36.16 44.1332 35.824C44.1332 35.304 44.3212 34.904 44.6972 34.624C45.0732 34.336 45.6772 34.192 46.5092 34.192C46.8372 34.192 47.1492 34.216 47.4452 34.264C47.7412 34.312 47.9932 34.372 48.2012 34.444V35.536C47.9772 35.448 47.7292 35.38 47.4572 35.332C47.1932 35.284 46.9452 35.26 46.7132 35.26C46.2972 35.26 45.9812 35.296 45.7652 35.368C45.5572 35.44 45.4532 35.584 45.4532 35.8C45.4532 36.024 45.5612 36.184 45.7772 36.28C46.0012 36.368 46.3572 36.492 46.8452 36.652C47.2932 36.788 47.6492 36.932 47.9132 37.084C48.1772 37.236 48.3652 37.42 48.4772 37.636C48.5972 37.844 48.6572 38.116 48.6572 38.452C48.6572 39.012 48.4532 39.432 48.0452 39.712C47.6372 39.984 47.0452 40.12 46.2692 40.12ZM49.8196 33.124V32.044H51.2476V33.124H49.8196ZM49.9276 40V35.308H49.0636L49.1836 34.312H51.2356V40H49.9276ZM54.9575 40.12C53.9575 40.12 53.2015 39.868 52.6895 39.364C52.1775 38.852 51.9215 38.116 51.9215 37.156C51.9215 36.156 52.2015 35.412 52.7615 34.924C53.3295 34.436 54.0855 34.192 55.0295 34.192C55.4215 34.192 55.7495 34.22 56.0135 34.276C56.2855 34.332 56.5455 34.42 56.7935 34.54V35.512C56.3775 35.304 55.8735 35.2 55.2815 35.2C54.6255 35.2 54.1215 35.348 53.7695 35.644C53.4175 35.932 53.2415 36.436 53.2415 37.156C53.2415 37.836 53.3975 38.336 53.7095 38.656C54.0215 38.968 54.5375 39.124 55.2575 39.124C55.8255 39.124 56.3415 39.016 56.8055 38.8V39.796C56.5415 39.9 56.2575 39.98 55.9535 40.036C55.6575 40.092 55.3255 40.12 54.9575 40.12Z" fill="white"/>
</g>
</svg>
