<svg width="55" height="55" viewBox="0 0 55 55" fill="none" xmlns="http://www.w3.org/2000/svg">
<rect x="1" y="1" width="53" height="53" rx="26.5" stroke="#54E0E0" stroke-width="2"/>
<path fill-rule="evenodd" clip-rule="evenodd" d="M18.8128 47.9768C18.8128 44.9079 20.6266 40.4432 23.4203 36.6407C27.191 31.5079 27.7003 30.6486 28.1828 28.6104C28.4478 27.4913 28.5967 26.5122 28.5104 26.4294C28.427 26.3494 28.2781 26.5264 28.1798 26.8233C27.2654 29.5696 25.5082 31.8048 23.6884 32.5356C23.1463 32.7526 21.8626 32.9324 20.8321 32.9353C18.512 32.9438 16.9424 33.589 14.9886 35.3389C13.5947 36.5922 13.4696 36.6407 11.7124 36.6407C10.1398 36.6407 9.75854 36.5322 8.96629 35.8528C8.43019 35.3932 7.81962 34.4226 7.50093 33.5176C6.85761 31.6935 7.03333 31.0026 8.5255 29.5039C10.1219 27.9024 12.4569 24.2284 13.1509 22.2358C13.6006 20.9426 13.9729 20.3403 14.4078 20.2061C15.2745 19.9435 17.5768 17.8567 18.1278 16.8318C18.5358 16.0753 18.3958 16.141 16.9126 17.4085C14.1933 19.7322 11.3222 20.7799 9.11819 20.2489C8.34977 20.0634 8.36764 20.0377 9.77045 19.3639C10.8665 18.8415 11.5426 18.2135 12.5493 16.7833C13.2849 15.7442 14.372 14.4738 14.9677 13.9543C15.9744 13.0864 18.8783 11.8047 19.8493 11.8047C20.1173 11.8047 20.299 11.4193 20.3586 10.7341L20.4509 9.66363L21.127 10.6628C21.8448 11.7276 22.8842 14.6365 23.1493 16.3408C23.2982 17.2743 23.2178 17.4284 22.3005 17.9851C20.3377 19.1812 19.6378 22.3214 20.9662 23.9715C21.9073 25.139 22.3779 25.4559 23.7152 25.8156C26.077 26.4494 28.567 25.0334 29.2282 22.6783C29.7881 20.6914 28.7933 18.6246 26.7919 17.6283C26.2141 17.34 25.9341 16.926 25.7971 16.1581C25.6899 15.57 25.3503 14.2711 25.0376 13.272C24.7278 12.2757 24.4717 11.3565 24.4717 11.2309C24.4717 10.8712 27.316 11.6791 29.0316 12.5241C31.1164 13.5546 32.9303 15.296 33.7583 17.0573C34.3807 18.3848 34.4344 18.8672 34.3659 22.5184C34.2854 26.7805 34.7918 29.6466 36.0278 31.9618C36.5937 33.0152 36.5937 33.0437 36.0278 33.9601C35.31 35.1277 31.6436 38.4648 30.4076 39.0786C29.8953 39.3298 29.5558 39.6096 29.6481 39.6981C29.9787 40.015 34.8871 37.5171 36.1856 36.3695L37.508 35.2019L37.9876 36.3552C38.7143 38.0909 38.6011 39.2356 37.5765 40.5945C35.7776 42.9753 33.0494 44.3969 26.5566 46.3467C22.6043 47.5343 19.9297 48.6219 19.5604 49.1957C19.1196 49.8809 18.8128 49.3813 18.8128 47.9768ZM18.3779 23.1379C18.2648 23.5775 17.958 24.1627 17.7019 24.4368C16.8709 25.3189 15.5366 24.885 15.5366 23.7317C15.5366 23.215 16.0757 22.9238 17.7316 22.5384C18.5477 22.3471 18.5775 22.3728 18.3779 23.1379Z" fill="#54E0E0"/>
<path d="M23.6943 24.3711C21.7346 23.6118 21.1836 21.0539 22.6549 19.5438C24.9423 17.1972 28.9363 19.7722 27.6377 22.7525C26.9765 24.2683 25.255 24.9763 23.6943 24.3711Z" fill="#F3CE00"/>
<path d="M44.0694 37.557C40.8617 36.4409 38.1543 33.5576 37.0583 30.0891C36.4954 28.3135 36.4001 24.8364 36.8051 20.7885C37.0107 18.7131 36.966 17.8995 36.5818 16.6291C35.9801 14.6422 35.0271 13.2777 33.7434 12.5583C32.8737 12.073 32.6116 12.0445 31.736 12.3471C30.8752 12.6468 30.6012 12.624 29.8149 12.1786C29.0227 11.7333 28.9214 11.5449 29.0733 10.8055C29.1716 10.3345 29.7077 9.28966 30.2646 8.48748C33.5111 3.8029 41.1059 4.80776 43.5363 10.2431C44.3881 12.1444 44.5191 14.1998 44.0009 17.4941C43.3754 21.4707 43.4112 23.4633 44.1409 25.5444C44.8646 27.6027 45.6092 28.6361 46.8869 29.3583C48.1468 30.072 47.4886 30.2204 45.5109 29.6695C44.3494 29.3469 43.6077 28.9073 42.8274 28.0794C42.2317 27.4485 41.6807 26.9347 41.5973 26.9347C41.2757 26.9347 41.4723 30.0434 41.8952 31.5935C42.5355 33.9544 43.4171 35.4731 44.951 36.8548C46.4104 38.1708 46.2317 38.3107 44.0694 37.557Z" fill="#F3CE00"/>
<path d="M15.3936 11.5592C15.197 10.186 15.6349 7.80806 16.0846 7.80806C16.3824 7.80806 17.9461 9.41527 18.7681 10.5686L19.4144 11.4707L17.9252 11.9445C17.1062 12.2072 16.3616 12.5383 16.2663 12.6839C15.888 13.2691 15.5813 12.8752 15.3936 11.5592Z" fill="#F3CE00"/>
</svg>
