<svg width="168" height="174" viewBox="0 0 168 174" fill="none" xmlns="http://www.w3.org/2000/svg">
<path fill-rule="evenodd" clip-rule="evenodd" d="M63.7822 114.564C63.7822 107.009 68.0827 96.0179 74.7063 86.657C83.6462 74.0213 84.8537 71.906 85.9976 66.8882C86.6261 64.1334 86.9792 61.7229 86.7744 61.5191C86.5767 61.3223 86.2236 61.758 85.9906 62.4889C83.8227 69.2495 79.6564 74.7522 75.3419 76.5512C74.0567 77.0854 71.0132 77.5281 68.5699 77.5351C63.069 77.5562 59.3476 79.1445 54.7153 83.4524C51.4105 86.5376 51.1139 86.657 46.9476 86.657C43.2192 86.657 42.3153 86.39 40.437 84.7174C39.1659 83.5859 37.7183 81.1965 36.9627 78.9688C35.4374 74.4781 35.8541 72.7774 39.3919 69.0879C43.1768 65.1453 48.713 56.1007 50.3583 51.1954C51.4246 48.0119 52.3073 46.529 53.3383 46.1987C55.3932 45.5522 60.8517 40.415 62.1581 37.8921C63.1255 36.0297 62.7936 36.1914 59.277 39.3116C52.8299 45.0322 46.0226 47.6113 40.7971 46.3042C38.9752 45.8474 39.0176 45.7841 42.3436 44.1256C44.9422 42.8395 46.5451 41.2934 48.9319 37.7726C50.6761 35.2145 53.2535 32.0872 54.6658 30.8082C57.0526 28.6718 63.9376 25.5163 66.2396 25.5163C66.8751 25.5163 67.3059 24.5676 67.4471 22.881L67.666 20.2456L69.269 22.7053C70.9708 25.3266 73.4353 32.4878 74.0637 36.6833C74.4168 38.9813 74.2262 39.3608 72.0512 40.7312C67.3977 43.6758 65.7382 51.4063 68.8877 55.4682C71.1191 58.3426 72.2348 59.1226 75.4054 60.0081C81.0052 61.5683 86.9086 58.0825 88.4762 52.2847C89.8038 47.3935 87.4452 42.3054 82.6999 39.8528C81.33 39.143 80.6662 38.124 80.3414 36.2335C80.0872 34.7858 79.2822 31.5882 78.5407 29.1286C77.8063 26.6759 77.199 24.413 77.199 24.1038C77.199 23.2183 83.9427 25.2071 88.0102 27.2873C92.9532 29.8243 97.2536 34.1112 99.2167 38.4472C100.693 41.7151 100.82 42.9028 100.657 51.8912C100.467 62.3835 101.667 69.4392 104.598 75.1387C105.939 77.7319 105.939 77.8022 104.598 80.058C102.896 82.9324 94.2031 91.1477 91.2726 92.6587C90.058 93.2771 89.253 93.9658 89.4719 94.1837C90.2557 94.9637 101.893 88.8145 104.972 85.9894L108.107 83.1151L109.244 85.9543C110.967 90.2271 110.699 93.0452 108.27 96.3904C104.004 102.251 97.5361 105.751 82.1421 110.551C72.7715 113.475 66.4303 116.152 65.5546 117.565C64.5095 119.251 63.7822 118.021 63.7822 114.564ZM62.7512 53.4162C62.4829 54.4984 61.7556 55.9391 61.1483 56.6138C59.1781 58.7853 56.0146 57.7171 56.0146 54.8779C56.0146 53.6059 57.2927 52.8891 61.2189 51.9404C63.1537 51.4695 63.2243 51.5328 62.7512 53.4162Z" fill="#54E0E0"/>
<path d="M75.356 56.4521C70.7095 54.5828 69.4031 48.286 72.8915 44.5683C78.3147 38.7916 87.7842 45.1306 84.7054 52.4674C83.1377 56.1991 79.0562 57.942 75.356 56.4521Z" fill="#F3CE00"/>
<path d="M123.664 88.9129C116.058 86.1651 109.639 79.0671 107.041 70.5285C105.706 66.1573 105.48 57.5976 106.441 47.6324C106.928 42.5233 106.822 40.5204 105.911 37.3931C104.485 32.5018 102.225 29.1426 99.1814 27.3716C97.1195 26.1769 96.4981 26.1067 94.422 26.8516C92.3812 27.5895 91.7316 27.5333 89.8673 26.437C87.989 25.3406 87.7489 24.8768 88.109 23.0566C88.3421 21.8971 89.6131 19.325 90.9336 17.3502C98.6306 5.81779 116.637 8.29152 122.4 21.6722C124.419 26.3526 124.73 31.4125 123.501 39.5225C122.018 49.312 122.103 54.2173 123.833 59.3405C125.549 64.4074 127.314 66.9515 130.344 68.7295C133.331 70.4864 131.77 70.8518 127.081 69.4955C124.327 68.7013 122.569 67.6191 120.719 65.5811C119.307 64.0279 118 62.763 117.803 62.763C117.04 62.763 117.506 70.4161 118.509 74.2321C120.027 80.044 122.117 83.7827 125.754 87.1841C129.214 90.4239 128.79 90.7682 123.664 88.9129Z" fill="#F3CE00"/>
<path d="M55.6756 24.912C55.2096 21.5316 56.2476 15.6776 57.3139 15.6776C58.02 15.6776 61.7273 19.6342 63.6763 22.4734L65.2086 24.6941L61.6779 25.8607C59.736 26.5072 57.9706 27.3224 57.7446 27.6809C56.8478 29.1215 56.1205 28.1517 55.6756 24.912Z" fill="#F3CE00"/>
<path d="M43.8116 148.355V134.444H47.0977L47.2791 135.21C47.6689 134.901 48.0922 134.666 48.5492 134.505C49.0196 134.33 49.5639 134.243 50.1821 134.243C51.6068 134.243 52.7021 134.605 53.4682 135.331C54.2477 136.044 54.6375 137.26 54.6375 138.98C54.6375 140.687 54.2276 141.984 53.4077 142.871C52.5879 143.758 51.4589 144.202 50.0209 144.202C49.0666 144.202 48.2602 144.02 47.6017 143.657V148.355H43.8116ZM49.0532 141.44C49.6042 141.44 50.0276 141.245 50.3233 140.855C50.6189 140.465 50.7668 139.86 50.7668 139.041C50.7668 138.248 50.6257 137.71 50.3434 137.428C50.0746 137.146 49.658 137.004 49.0935 137.004C48.529 137.004 48.0317 137.193 47.6017 137.569V140.956C47.8167 141.117 48.0317 141.238 48.2468 141.319C48.4618 141.399 48.7306 141.44 49.0532 141.44ZM61.2383 144.202C59.3298 144.202 57.9186 143.778 57.0047 142.932C56.1042 142.085 55.654 140.848 55.654 139.222C55.654 137.609 56.111 136.38 57.0249 135.533C57.9388 134.673 59.3433 134.243 61.2383 134.243C63.1468 134.243 64.558 134.673 65.4719 135.533C66.3993 136.38 66.863 137.609 66.863 139.222C66.863 140.848 66.406 142.085 65.4921 142.932C64.5782 143.778 63.1602 144.202 61.2383 144.202ZM61.2383 141.44C61.8566 141.44 62.3001 141.265 62.5689 140.916C62.8511 140.566 62.9922 140.002 62.9922 139.222C62.9922 138.456 62.8511 137.898 62.5689 137.549C62.3001 137.186 61.8566 137.004 61.2383 137.004C60.6335 137.004 60.1967 137.186 59.9279 137.549C59.6591 137.898 59.5247 138.456 59.5247 139.222C59.5247 140.002 59.6591 140.566 59.9279 140.916C60.1967 141.265 60.6335 141.44 61.2383 141.44ZM68.2831 144V134.444H71.8313L71.9321 135.17C72.295 134.928 72.7721 134.713 73.3635 134.525C73.9683 134.337 74.6134 134.243 75.2988 134.243C76.495 134.243 77.3686 134.538 77.9196 135.13C78.4707 135.721 78.7462 136.635 78.7462 137.871V144H74.9561V138.254C74.9561 137.824 74.862 137.515 74.6739 137.327C74.4857 137.139 74.1564 137.045 73.686 137.045C73.4038 137.045 73.1081 137.112 72.799 137.246C72.5033 137.381 72.2614 137.542 72.0732 137.73V144H68.2831ZM83.1436 147.548C82.606 147.548 82.149 147.515 81.7727 147.447C81.4098 147.394 81.0469 147.3 80.6841 147.165V144.585C80.8991 144.665 81.1007 144.719 81.2889 144.746C81.4905 144.773 81.6988 144.786 81.9138 144.786C82.4514 144.786 82.8412 144.719 83.0831 144.585C83.3385 144.45 83.5938 144.181 83.8492 143.778L79.5349 134.444H83.5065L85.7442 140.069L87.9215 134.444H91.8729L88.3449 143.093C87.7938 144.45 87.1151 145.532 86.3087 146.339C85.5157 147.145 84.4607 147.548 83.1436 147.548ZM96.9653 144.202C95.6885 144.202 94.7611 143.879 94.1832 143.234C93.6053 142.589 93.3163 141.715 93.3163 140.613V137.246H92.0664V134.444H93.3163V132.489L97.1064 131.581V134.444H99.3039L99.1627 137.246H97.1064V140.331C97.1064 140.734 97.2072 141.023 97.4088 141.198C97.6104 141.359 97.9195 141.44 98.3362 141.44C98.7259 141.44 99.1224 141.372 99.5256 141.238V143.758C98.8133 144.054 97.9599 144.202 96.9653 144.202ZM103.515 144.202C102.91 144.202 102.346 144.094 101.822 143.879C101.311 143.664 100.901 143.328 100.592 142.871C100.283 142.414 100.128 141.836 100.128 141.137C100.128 140.129 100.464 139.35 101.136 138.799C101.808 138.234 102.823 137.952 104.18 137.952H106.66V137.771C106.66 137.394 106.505 137.119 106.196 136.944C105.887 136.769 105.343 136.682 104.563 136.682C103.461 136.682 102.373 136.85 101.297 137.186V134.908C101.781 134.72 102.386 134.565 103.112 134.444C103.838 134.31 104.577 134.243 105.329 134.243C106.848 134.243 108.051 134.552 108.938 135.17C109.825 135.788 110.269 136.769 110.269 138.113V144H106.962L106.781 143.234C106.445 143.53 106.008 143.765 105.47 143.94C104.946 144.114 104.294 144.202 103.515 144.202ZM104.805 141.984C105.235 141.984 105.598 141.91 105.894 141.762C106.203 141.614 106.458 141.433 106.66 141.218V140.028H104.825C103.992 140.028 103.575 140.358 103.575 141.016C103.575 141.661 103.985 141.984 104.805 141.984ZM112.655 133.174V130.432H116.747V133.174H112.655ZM112.957 144V137.206H111.566L111.889 134.444H116.747V144H112.957ZM121.811 144.202C120.641 144.202 119.808 143.953 119.311 143.456C118.814 142.958 118.565 142.179 118.565 141.117V130.412H122.355V140.694C122.355 140.989 122.416 141.191 122.537 141.299C122.657 141.393 122.846 141.44 123.101 141.44C123.276 141.44 123.444 141.426 123.605 141.399C123.78 141.372 123.941 141.332 124.089 141.278V143.798C123.739 143.933 123.397 144.034 123.061 144.101C122.738 144.168 122.321 144.202 121.811 144.202Z" fill="white"/>
</svg>
